<?xml version="1.0" encoding="UTF-8"?>
<svg width="19px" height="20px" viewBox="0 0 19 20" version="1.1" xmlns="http://www.w3.org/2000/svg" xmlns:xlink="http://www.w3.org/1999/xlink">
    <!-- Generator: Sketch 64 (93537) - https://sketch.com -->
    <title>路径</title>
    <desc>Created with Sketch.</desc>
    <g id="页面-1" stroke="none" stroke-width="1" fill="none" fill-rule="evenodd" stroke-linecap="round" stroke-linejoin="round">
        <g id="moon" transform="translate(9.500000, 10.833333) scale(-1, 1) rotate(30.000000) translate(-9.500000, -10.833333) translate(1.500000, 3.833333)" stroke="#E9ECEF" stroke-width="1.66666667">
            <path d="M2.85716251,-0.683890188 C1.15731,0.499662646 0.0211982594,2.21769089 -0.457790008,4.10269707 C-0.936778276,5.98770325 -0.758643069,8.03968736 0.169998319,9.89115193 C1.09863971,11.7426165 2.63679233,13.112455 4.43406338,13.8557549 C6.23133443,14.5990549 8.28772391,14.7158163 10.252839,14.0611268 C12.2179542,13.4064372 13.7934329,12.0796977 14.7858043,10.4070122 C15.7781757,8.73432657 16.1874398,6.71569488 15.8201255,4.67722092 C15.7570606,4.32723147 15.6727476,3.98578057 15.5686802,3.65407311 C15.2808148,3.7893698 14.9805336,3.9249912 14.6681778,4.06057965 C11.6364026,5.37662295 9.37917239,5.85956217 7.92752603,5.28079463 C5.96950719,4.50013773 4.7505197,2.64091235 4.14822643,-0.174337837 C4.06330838,-0.57126337 3.99735189,-0.95586385 3.95081035,-1.32796618 C3.57539998,-1.14410265 3.2097076,-0.929356041 2.85716251,-0.683890188 Z" id="路径"></path>
        </g>
    </g>
</svg>